<svg preserveAspectRatio="none" width="100%" height="100%" overflow="visible" style="display: block;" viewBox="0 0 14.0005 18.0002" fill="none" xmlns="http://www.w3.org/2000/svg">
<g id="Vector">
<path fill-rule="evenodd" clip-rule="evenodd" d="M5.00023 2C5.00023 0.89543 5.89567 0 7.00023 0C8.1048 0 9.00023 0.89543 9.00023 2C9.00023 3.10457 8.1048 4 7.00023 4C5.89567 4 5.00023 3.10457 5.00023 2Z" fill="var(--fill-0, #FAF9FA)"/>
<path fill-rule="evenodd" clip-rule="evenodd" d="M7.00022 10C7.37899 10 7.72525 10.214 7.89465 10.5528L10.8946 16.5528C11.1416 17.0468 10.9414 17.6474 10.4474 17.8944C9.95345 18.1414 9.35278 17.9412 9.10579 17.4472L7.00022 13.2361L4.89465 17.4472C4.64766 17.9412 4.04698 18.1414 3.55301 17.8944C3.05903 17.6474 2.8588 17.0468 3.10579 16.5528L6.10579 10.5528C6.27518 10.214 6.62145 10 7.00022 10Z" fill="var(--fill-0, #FAF9FA)"/>
<path fill-rule="evenodd" clip-rule="evenodd" d="M0.051588 4.68377C0.226236 4.15983 0.792556 3.87667 1.3165 4.05131L7.00027 5.94591L12.684 4.05131C13.208 3.87667 13.7743 4.15983 13.949 4.68377C14.1236 5.20771 13.8404 5.77403 13.3165 5.94868L7.3165 7.94868C7.11123 8.0171 6.88931 8.0171 6.68404 7.94868L0.684044 5.94868C0.1601 5.77403 -0.12306 5.20771 0.051588 4.68377Z" fill="var(--fill-0, #FAF9FA)"/>
<path fill-rule="evenodd" clip-rule="evenodd" d="M7.00023 6C7.55252 6 8.00023 6.44772 8.00023 7V11C8.00023 11.5523 7.55252 12 7.00023 12C6.44795 12 6.00023 11.5523 6.00023 11V7C6.00023 6.44772 6.44795 6 7.00023 6Z" fill="var(--fill-0, #FAF9FA)"/>
</g>
</svg>
