<svg preserveAspectRatio="none" width="100%" height="100%" overflow="visible" style="display: block;" viewBox="0 0 15 13.3333" fill="none" xmlns="http://www.w3.org/2000/svg">
<g id="Vector">
<path d="M14.1667 0C14.6269 0 15 0.373096 15 0.833333C15 1.29357 14.6269 1.66667 14.1667 1.66667H0.833333C0.373096 1.66667 0 1.29357 0 0.833333C0 0.373096 0.373096 0 0.833333 0H14.1667Z" fill="var(--fill-0, #F5F4F5)"/>
<path d="M14.1667 5.83333C14.6269 5.83333 15 6.20643 15 6.66667C15 7.1269 14.6269 7.5 14.1667 7.5H0.833333C0.373096 7.5 0 7.1269 0 6.66667C0 6.20643 0.373096 5.83333 0.833333 5.83333H14.1667Z" fill="var(--fill-0, #F5F4F5)"/>
<path d="M14.1667 11.6667C14.6269 11.6667 15 12.0398 15 12.5C15 12.9602 14.6269 13.3333 14.1667 13.3333H0.833333C0.373096 13.3333 0 12.9602 0 12.5C0 12.0398 0.373096 11.6667 0.833333 11.6667H14.1667Z" fill="var(--fill-0, #F5F4F5)"/>
</g>
</svg>
