<svg preserveAspectRatio="none" width="100%" height="100%" overflow="visible" style="display: block;" viewBox="0 0 20 16" fill="none" xmlns="http://www.w3.org/2000/svg">
<g id="Vector">
<path fill-rule="evenodd" clip-rule="evenodd" d="M3 2C2.44772 2 2 2.44772 2 3V13C2 13.5523 2.44772 14 3 14H17C17.5523 14 18 13.5523 18 13V3C18 2.44772 17.5523 2 17 2H3ZM0 3C0 1.34315 1.34315 0 3 0H17C18.6569 0 20 1.34315 20 3V13C20 14.6569 18.6569 16 17 16H3C1.34315 16 0 14.6569 0 13V3Z" fill="var(--fill-0, #FAF9FA)"/>
<path fill-rule="evenodd" clip-rule="evenodd" d="M4 7C4 6.44772 4.44772 6 5 6H7C7.55228 6 8 6.44772 8 7C8 7.55228 7.55228 8 7 8H5C4.44772 8 4 7.55228 4 7ZM10 7C10 6.44772 10.4477 6 11 6H15C15.5523 6 16 6.44772 16 7C16 7.55228 15.5523 8 15 8H11C10.4477 8 10 7.55228 10 7ZM4 11C4 10.4477 4.44772 10 5 10H9C9.55228 10 10 10.4477 10 11C10 11.5523 9.55228 12 9 12H5C4.44772 12 4 11.5523 4 11ZM12 11C12 10.4477 12.4477 10 13 10H15C15.5523 10 16 10.4477 16 11C16 11.5523 15.5523 12 15 12H13C12.4477 12 12 11.5523 12 11Z" fill="var(--fill-0, #FAF9FA)"/>
</g>
</svg>
