<svg preserveAspectRatio="none" width="100%" height="100%" overflow="visible" style="display: block;" viewBox="0 0 41.7295 46.366" fill="none" xmlns="http://www.w3.org/2000/svg">
<path id="Vector" d="M6.97718 3.68787e-05C8.20078 0.0041907 9.40214 0.331929 10.459 0.94859L38.2636 17.1668H38.2658C39.3186 17.7777 40.1934 18.6546 40.8014 19.7091C41.4093 20.7636 41.7285 21.9601 41.7295 23.1773C41.7305 24.3944 41.4119 25.5901 40.8059 26.6455C40.2755 27.5692 39.5419 28.3572 38.662 28.9501L38.2772 29.1924L10.459 45.4196C9.40232 46.036 8.20048 46.3618 6.97718 46.3659C5.75401 46.3699 4.55153 46.0515 3.49086 45.4423C2.42997 44.8328 1.54779 43.9544 0.93497 42.8955C0.32214 41.8363 -0.000362264 40.6328 3.05374e-07 39.4091V6.95685C-0.00036217 5.73349 0.322451 4.53175 0.93497 3.47278C1.5478 2.41362 2.4298 1.53323 3.49086 0.923687C4.55148 0.314548 5.7541 -0.00394474 6.97718 3.68787e-05ZM4.63636 39.4114C4.63628 39.8192 4.74453 40.2197 4.94878 40.5727C5.15305 40.9257 5.44638 41.2186 5.79998 41.4217C6.15336 41.6247 6.55382 41.7308 6.96134 41.7296C7.36903 41.7282 7.77052 41.6203 8.12269 41.4149L35.9409 25.1876L35.9431 25.1854C36.2934 24.9811 36.5834 24.688 36.7853 24.3364C36.987 23.9849 37.0934 23.5871 37.0932 23.1819C37.0928 22.7761 36.9857 22.3765 36.783 22.025C36.5804 21.6737 36.2894 21.3819 35.9386 21.1783L35.9341 21.1761L8.12269 4.95334C7.77039 4.74776 7.36923 4.63779 6.96134 4.6364C6.5539 4.63521 6.1533 4.74136 5.79998 4.94428C5.4465 5.14735 5.15304 5.44045 4.94878 5.79323C4.74461 6.14608 4.63636 6.54693 4.63636 6.95458V39.4114Z" fill="var(--fill-0, #F68322)"/>
</svg>
