<svg preserveAspectRatio="none" width="100%" height="100%" overflow="visible" style="display: block;" viewBox="0 0 52.8131 63.6928" fill="none" xmlns="http://www.w3.org/2000/svg">
<g id="Frame 2">
<path id="Vector" d="M26.8291 0C27.0817 0.0378733 30.1184 3.26691 30.5797 3.68462C26.1627 7.84667 21.8041 12.312 17.4949 16.5973L13.4743 20.554C12.0311 21.9745 10.676 23.2934 9.46233 24.9234C6.19095 29.3018 4.81531 34.8108 5.64447 40.2131C6.43132 45.7564 9.41593 50.7498 13.9256 54.0679C15.2838 55.0727 17.4831 56.3372 19.0886 56.8995C27.8161 59.9559 37.6779 57.1156 43.2322 49.5732C46.5484 45.0457 47.9091 39.3766 47.009 33.8372C46.2788 29.0906 43.6668 24.8253 40.316 21.4997C39.2818 20.4733 38.3688 19.3925 37.1778 18.5169C37.9164 17.7187 40.4616 15.0963 41.2484 14.6198C42.5885 16.1174 44.1371 17.5915 45.5193 19.0869C45.609 19.1713 45.696 19.2586 45.7801 19.3486C50.7359 24.6187 53.0158 31.1083 52.799 38.289C52.5883 45.2651 49.5971 51.8675 44.4914 56.626C39.3423 61.4179 32.4923 63.9543 25.4642 63.6714C19.8735 63.5025 14.4858 61.5378 10.099 58.0679C2.41839 52.0349 -1.42134 42.0334 0.482228 32.5265C1.3511 28.1872 2.93852 24.4899 5.68876 20.9858C6.87283 19.4772 8.34668 18.1751 9.70027 16.839C11.8186 14.7175 13.9569 12.616 16.115 10.535L23.295 3.46555C24.4589 2.31692 25.6308 1.10873 26.8291 0Z" fill="var(--fill-0, #FFF8ED)"/>
<path id="Vector_2" d="M33.8609 7.28286C34.2118 7.42659 37.2168 10.599 37.6668 11.0712C37.5884 11.1255 37.5125 11.1832 37.4392 11.2442C35.8994 12.5273 34.2423 14.3305 32.8082 15.7659L25.0844 23.4815L20.3531 28.168C19.4564 29.0625 18.2627 30.1735 17.5561 31.1758C16.4816 32.7011 15.8272 34.4823 15.6586 36.3405C15.3432 39.8782 16.8056 43.322 19.546 45.56C27.4144 51.9857 39.1371 44.8881 36.9149 34.9232C36.1854 31.6517 34.0727 29.7115 31.8776 27.3612C31.2705 26.7116 30.5738 26.2059 29.9974 25.5244C30.9486 24.4552 33.1575 22.6318 33.8836 21.5879C34.5137 22.5407 37.1278 25.0141 38.1082 26.0753C40.5181 28.4187 42.3194 32.6787 42.569 35.9885C42.9139 40.4513 41.4454 44.6678 38.5248 48.0149C31.5379 56.022 18.3584 54.9507 12.7771 45.9145C11.4337 43.7394 10.4896 41.0302 10.3262 38.4731C10.1171 35.1548 10.9221 31.8513 12.6344 29.0012C14.0141 26.7257 16.5612 24.4926 18.4833 22.5734L27.7795 13.3581C29.6042 11.5731 32.2104 9.16257 33.8609 7.28286Z" fill="var(--fill-0, #FFF8ED)"/>
<path id="Vector_3" d="M26.4127 29.1771C26.6171 29.2472 28.0542 30.7887 28.3209 31.0473C30.0598 32.733 32.0718 34.2575 32.2263 36.8664C32.3317 38.6455 31.8475 39.89 30.6976 41.2516C29.7532 42.4142 27.9384 43.1288 26.471 43.2255C20.5773 43.1499 18.5001 36.1397 22.8038 32.5605C24.0463 31.5272 25.0988 30.2087 26.4127 29.1771Z" fill="var(--fill-0, #FFF8ED)"/>
</g>
</svg>
