<svg preserveAspectRatio="none" width="100%" height="100%" overflow="visible" style="display: block;" viewBox="0 0 143.689 173.29" fill="none" xmlns="http://www.w3.org/2000/svg">
<g id="Frame 2">
<path id="Vector" d="M72.9943 0C73.6815 0.103042 81.9433 8.8883 83.1984 10.0248C71.1812 21.3485 59.3226 33.4973 47.5987 45.1563L36.6596 55.9214C32.7331 59.7861 29.0464 63.3745 25.7443 67.8094C16.8438 79.7218 13.1011 94.7101 15.357 109.408C17.4978 124.49 25.618 138.076 37.8875 147.103C41.5828 149.837 47.5665 153.277 51.9345 154.807C75.6797 163.123 102.511 155.395 117.622 134.874C126.645 122.556 130.347 107.132 127.898 92.0611C125.911 79.147 118.805 67.5425 109.688 58.4945C106.874 55.7019 104.39 52.7614 101.15 50.3791C103.16 48.2074 110.084 41.0726 112.225 39.7763C115.871 43.8506 120.084 47.8614 123.845 51.9298C124.089 52.1597 124.326 52.3972 124.554 52.642C138.038 66.9803 144.241 84.6366 143.651 104.173C143.078 123.153 134.939 141.116 121.048 154.063C107.039 167.1 88.4022 174.001 69.2807 173.231C54.0701 172.772 39.4117 167.426 27.4765 157.986C6.57972 141.572 -3.86706 114.361 1.312 88.4952C3.67595 76.6892 7.99486 66.6298 15.4775 57.0964C18.699 52.9919 22.7089 49.4492 26.3916 45.8142C32.1549 40.042 37.9726 34.3245 43.8442 28.6626L63.379 9.42876C66.5457 6.30366 69.7339 3.01653 72.9943 0Z" fill="var(--fill-0, #F68322)"/>
<path id="Vector_2" d="M92.1257 19.8145C93.0802 20.2056 101.256 28.8369 102.48 30.1215C102.267 30.2692 102.061 30.4262 101.861 30.5922C97.6719 34.0832 93.1633 38.9891 89.2617 42.8946L68.2472 63.8864L55.3748 76.6369C52.9351 79.0706 49.6874 82.0932 47.765 84.8203C44.8416 88.9703 43.0613 93.8163 42.6025 98.872C41.7442 108.497 45.7232 117.867 53.179 123.956C74.5866 141.438 106.481 122.128 100.435 95.0158C98.4498 86.115 92.7019 80.8365 86.7297 74.4419C85.0778 72.6746 83.1824 71.2985 81.6141 69.4444C84.202 66.5354 90.212 61.5747 92.1875 58.7345C93.9017 61.3267 101.014 68.0561 103.681 70.9433C110.238 77.319 115.139 88.9094 115.818 97.9142C116.756 110.056 112.761 121.528 104.815 130.635C85.8055 152.42 49.9479 149.505 34.7629 124.92C31.1076 119.002 28.5391 111.631 28.0945 104.674C27.5257 95.6459 29.7159 86.6582 34.3746 78.9039C38.1282 72.7129 45.0582 66.6373 50.2876 61.4157L75.58 36.3436C80.5444 31.487 87.6351 24.9287 92.1257 19.8145Z" fill="var(--fill-0, #F68322)"/>
<path id="Vector_3" d="M71.8612 79.3824C72.4173 79.5731 76.3273 83.7672 77.0528 84.4706C81.7839 89.0568 87.258 93.2046 87.6785 100.303C87.9651 105.143 86.6477 108.529 83.5193 112.234C80.9497 115.397 76.0121 117.341 72.0198 117.604C55.9847 117.398 50.3334 98.3256 62.0424 88.5876C65.4229 85.7763 68.2866 82.1892 71.8612 79.3824Z" fill="var(--fill-0, #F68322)"/>
</g>
</svg>
