<svg preserveAspectRatio="none" width="100%" height="100%" overflow="visible" style="display: block;" viewBox="0 0 20 21.0005" fill="none" xmlns="http://www.w3.org/2000/svg">
<g id="Vector">
<path d="M12 20.0005V12.0005H8V20.0005C8 20.5528 7.55228 21.0005 7 21.0005C6.44772 21.0005 6 20.5528 6 20.0005V12.0005C6 11.4701 6.21087 10.9615 6.58594 10.5864C6.96101 10.2114 7.46957 10.0005 8 10.0005H12C12.5304 10.0005 13.039 10.2114 13.4141 10.5864C13.7891 10.9615 14 11.4701 14 12.0005V20.0005C14 20.5528 13.5523 21.0005 13 21.0005C12.4477 21.0005 12 20.5528 12 20.0005Z" fill="var(--fill-0, #FAF9FA)"/>
<path d="M18 9C18 8.85463 17.9684 8.71097 17.9072 8.5791C17.846 8.44717 17.7566 8.33022 17.6455 8.23633L17.6406 8.23145L10.6455 2.23535C10.465 2.08281 10.2363 2 10 2C9.76368 2 9.53498 2.08378 9.35449 2.23633L9.35352 2.23535L2.35937 8.23145L2.35449 8.23633C2.24341 8.33022 2.15399 8.44717 2.09277 8.5791C2.03159 8.71097 2 8.85463 2 9V18C2 18.2652 2.10543 18.5205 2.29297 18.708C2.48048 18.8954 2.7349 19 3 19H17C17.2651 19 17.5195 18.8954 17.707 18.708C17.8946 18.5205 18 18.2652 18 18V9ZM20 18C20 18.7957 19.6837 19.5595 19.1211 20.1221C18.5585 20.6845 17.7955 21 17 21H3C2.20447 21 1.44149 20.6845 0.878906 20.1221C0.316297 19.5595 0 18.7957 0 18V9C-2.00868e-08 8.5639 0.0947846 8.13291 0.27832 7.7373C0.461975 7.3415 0.73024 6.99066 1.06348 6.70898L8.05859 0.712891L8.06348 0.708984C8.60496 0.251347 9.29104 0 10 0C10.6202 0 11.2229 0.192338 11.7266 0.546875L11.9365 0.708984L11.9414 0.712891L18.9365 6.70898L19.0586 6.81738C19.3356 7.07869 19.561 7.39094 19.7217 7.7373C19.9052 8.13291 20 8.5639 20 9V18Z" fill="var(--fill-0, #FAF9FA)"/>
</g>
</svg>
