<svg preserveAspectRatio="none" width="100%" height="100%" overflow="visible" style="display: block;" viewBox="0 0 22.0002 20" fill="none" xmlns="http://www.w3.org/2000/svg">
<g id="Vector">
<path fill-rule="evenodd" clip-rule="evenodd" d="M10.0001 11C10.0001 10.4477 10.4478 10 11.0001 10H11.0101C11.5624 10 12.0101 10.4477 12.0101 11C12.0101 11.5523 11.5624 12 11.0101 12H11.0001C10.4478 12 10.0001 11.5523 10.0001 11Z" fill="var(--fill-0, #FAF9FA)"/>
<path fill-rule="evenodd" clip-rule="evenodd" d="M6.87879 0.87868C7.4414 0.31607 8.20446 0 9.00011 0H13.0001C13.7958 0 14.5588 0.31607 15.1214 0.87868C15.684 1.44129 16.0001 2.20435 16.0001 3V5C16.0001 5.55228 15.5524 6 15.0001 6C14.4478 6 14.0001 5.55228 14.0001 5V3C14.0001 2.73478 13.8948 2.48043 13.7072 2.29289C13.5197 2.10536 13.2653 2 13.0001 2H9.00011C8.7349 2 8.48054 2.10536 8.29301 2.29289C8.10547 2.48043 8.00011 2.73478 8.00011 3V5C8.00011 5.55228 7.5524 6 7.00011 6C6.44783 6 6.00011 5.55228 6.00011 5V3C6.00011 2.20435 6.31618 1.44129 6.87879 0.87868Z" fill="var(--fill-0, #FAF9FA)"/>
<path fill-rule="evenodd" clip-rule="evenodd" d="M0.165582 11.4491C0.469871 10.9882 1.09018 10.8612 1.55107 11.1655C4.3548 13.0166 7.64046 14.0033 11.0001 14.0033C14.3598 14.0033 17.6454 13.0166 20.4491 11.1655C20.91 10.8612 21.5303 10.9882 21.8346 11.4491C22.1389 11.91 22.012 12.5303 21.5511 12.8346C18.4204 14.9015 14.7516 16.0033 11.0001 16.0033C7.24866 16.0033 3.57984 14.9015 0.449146 12.8346C-0.0117514 12.5303 -0.138708 11.91 0.165582 11.4491Z" fill="var(--fill-0, #FAF9FA)"/>
<path fill-rule="evenodd" clip-rule="evenodd" d="M3.00011 6C2.44783 6 2.00011 6.44772 2.00011 7V17C2.00011 17.5523 2.44783 18 3.00011 18H19.0001C19.5524 18 20.0001 17.5523 20.0001 17V7C20.0001 6.44772 19.5524 6 19.0001 6H3.00011ZM0.000112314 7C0.000112314 5.34315 1.34326 4 3.00011 4H19.0001C20.657 4 22.0001 5.34315 22.0001 7V17C22.0001 18.6569 20.657 20 19.0001 20H3.00011C1.34326 20 0.000112314 18.6569 0.000112314 17V7Z" fill="var(--fill-0, #FAF9FA)"/>
</g>
</svg>
