<svg preserveAspectRatio="none" width="100%" height="100%" overflow="visible" style="display: block;" viewBox="0 0 21.0079 21.0079" fill="none" xmlns="http://www.w3.org/2000/svg">
<g id="Vector">
<path fill-rule="evenodd" clip-rule="evenodd" d="M5.11896 1.9179C7.04524 0.51434 9.40948 -0.155066 11.7856 0.0303064C14.1618 0.215679 16.3936 1.24364 18.0789 2.92895C19.7642 4.61425 20.7922 6.84608 20.9776 9.22225C21.163 11.5984 20.4935 13.9627 19.09 15.8889C17.6864 17.8152 15.641 19.1769 13.3224 19.7285C11.1442 20.2467 8.85945 20.0181 6.83253 19.0866L1.32107 20.9549C0.960612 21.0771 0.562046 20.9841 0.292921 20.715C0.0237949 20.4458 -0.0692264 20.0473 0.0529615 19.6868L1.92125 14.1754C0.989822 12.1484 0.761199 9.86369 1.2794 7.68552C1.83104 5.36686 3.19268 3.32145 5.11896 1.9179ZM11.6301 2.02425C9.72916 1.87595 7.83776 2.41147 6.29674 3.53432C4.75572 4.65716 3.6664 6.29349 3.2251 8.14842C2.78379 10.0034 3.01951 11.9549 3.88979 13.6514C4.01328 13.8922 4.03395 14.1727 3.94709 14.4289L2.5974 18.4105L6.57899 17.0608C6.83523 16.9739 7.11572 16.9946 7.35646 17.1181C9.05297 17.9884 11.0045 18.2241 12.8595 17.7828C14.7144 17.3415 16.3507 16.2522 17.4736 14.7111C18.5964 13.1701 19.1319 11.2787 18.9836 9.3778C18.8353 7.47687 18.013 5.69141 16.6647 4.34316C15.3165 2.99491 13.531 2.17255 11.6301 2.02425Z" fill="var(--fill-0, #FAF9FA)"/>
<path fill-rule="evenodd" clip-rule="evenodd" d="M11.2581 6.03217C10.7926 5.95233 10.3139 6.03981 9.90666 6.27912C9.49945 6.51844 9.19009 6.89415 9.03335 7.3397C8.85008 7.86069 8.27916 8.13446 7.75817 7.95119C7.23719 7.76792 6.96341 7.197 7.14668 6.67601C7.46016 5.7849 8.07889 5.03349 8.89329 4.55486C9.70769 4.07623 10.6652 3.90126 11.5963 4.06096C12.5273 4.22066 13.3718 4.70471 13.9801 5.42738C14.5883 6.14984 14.9212 7.06417 14.92 8.00852C14.9197 9.53901 13.785 10.5497 12.9747 11.0899C12.5391 11.3803 12.1106 11.5939 11.7949 11.7342C11.6357 11.8049 11.5016 11.8587 11.4049 11.8955C11.3565 11.9139 11.3173 11.9282 11.2887 11.9384C11.2744 11.9434 11.2628 11.9475 11.254 11.9505C11.2496 11.952 11.2459 11.9533 11.2429 11.9543C11.2414 11.9548 11.2401 11.9552 11.239 11.9556L11.2375 11.9561C11.2372 11.9562 11.2362 11.9565 10.92 11.0079L11.2362 11.9565C10.7123 12.1312 10.146 11.848 9.97133 11.3241C9.79692 10.8008 10.0791 10.2353 10.6017 10.0599C10.602 10.0598 10.6025 10.0596 10.6033 10.0593C10.6058 10.0585 10.611 10.0567 10.6187 10.0539C10.6341 10.0485 10.6593 10.0393 10.6929 10.0265C10.7604 10.0008 10.8606 9.96077 10.9826 9.90654C11.2295 9.79684 11.551 9.63538 11.8653 9.42581C12.5549 8.96607 12.92 8.47699 12.92 8.00786L12.92 8.00637C12.9207 7.53405 12.7542 7.07672 12.4501 6.71539C12.1459 6.35405 11.7237 6.11202 11.2581 6.03217Z" fill="var(--fill-0, #FAF9FA)"/>
<path fill-rule="evenodd" clip-rule="evenodd" d="M10 15.0079C10 14.4556 10.4477 14.0079 11 14.0079H11.01C11.5623 14.0079 12.01 14.4556 12.01 15.0079C12.01 15.5601 11.5623 16.0079 11.01 16.0079H11C10.4477 16.0079 10 15.5601 10 15.0079Z" fill="var(--fill-0, #FAF9FA)"/>
</g>
</svg>
