<svg preserveAspectRatio="none" width="100%" height="100%" overflow="visible" style="display: block;" viewBox="0 0 453.501 546.924" fill="none" xmlns="http://www.w3.org/2000/svg">
<g id="Frame 2">
<path id="Vector" d="M230.379 0C232.548 0.325214 258.624 28.0526 262.585 31.6395C224.657 67.3786 187.23 105.722 150.227 142.519L115.702 176.495C103.31 188.693 91.6741 200.018 81.2522 214.015C53.1611 251.612 41.3486 298.917 48.4686 345.307C55.2251 392.906 80.8538 435.784 119.578 464.276C131.241 472.905 150.126 483.763 163.912 488.591C238.855 514.836 323.537 490.447 371.231 425.68C399.707 386.803 411.391 338.124 403.662 290.556C397.392 249.798 374.963 213.173 346.19 184.616C337.309 175.802 329.47 166.522 319.242 159.003C325.585 152.149 347.44 129.63 354.196 125.539C365.704 138.398 379.001 151.057 390.87 163.897C391.641 164.623 392.387 165.372 393.109 166.145C435.664 211.398 455.242 267.124 453.38 328.784C451.571 388.687 425.886 445.382 382.043 486.242C337.829 527.39 279.009 549.169 218.659 546.74C170.652 545.29 124.388 528.419 86.7195 498.623C20.7665 446.819 -12.2049 360.937 4.14085 279.302C11.6018 242.041 25.2328 210.292 48.8488 180.203C59.0164 167.249 71.6721 156.068 83.2953 144.595C101.485 126.378 119.847 108.333 138.378 90.4629L200.032 29.7584C210.027 19.8952 220.089 9.52057 230.379 0Z" fill="var(--fill-0, #F68322)"/>
<path id="Vector_2" d="M290.761 62.5372C293.773 63.7715 319.577 91.013 323.441 95.0674C322.768 95.5334 322.117 96.0291 321.487 96.5528C308.265 107.571 294.035 123.055 281.721 135.381L215.397 201.634L174.77 241.876C167.07 249.557 156.82 259.097 150.753 267.704C141.526 280.802 135.907 296.096 134.459 312.053C131.75 342.43 144.308 372.002 167.84 391.22C235.405 446.396 336.067 385.45 316.985 299.882C310.72 271.79 292.579 255.13 273.73 234.948C268.517 229.37 262.534 225.027 257.585 219.175C265.752 209.994 284.721 194.337 290.956 185.373C296.366 193.555 318.813 214.794 327.232 223.906C347.925 244.029 363.393 280.609 365.536 309.03C368.498 347.351 355.888 383.558 330.809 412.3C270.813 481.056 157.642 471.857 109.716 394.263C98.1797 375.586 90.073 352.322 88.6701 330.365C86.8747 301.871 93.7873 273.504 108.491 249.031C120.338 229.491 142.21 210.316 158.714 193.836L238.54 114.705C254.208 99.3769 276.588 78.6781 290.761 62.5372Z" fill="var(--fill-0, #F68322)"/>
<path id="Vector_3" d="M226.803 250.541C228.558 251.143 240.899 264.38 243.189 266.6C258.121 281.075 275.397 294.166 276.724 316.568C277.629 331.845 273.471 342.531 263.598 354.223C255.488 364.207 239.904 370.343 227.304 371.173C176.695 370.524 158.859 310.328 195.814 279.594C206.483 270.721 215.521 259.4 226.803 250.541Z" fill="var(--fill-0, #F68322)"/>
</g>
</svg>
