<svg preserveAspectRatio="none" width="100%" height="100%" overflow="visible" style="display: block;" viewBox="0 0 16 16" fill="none" xmlns="http://www.w3.org/2000/svg">
<g id="Vector">
<path fill-rule="evenodd" clip-rule="evenodd" d="M8 1C8 0.447715 8.44772 5.58794e-09 9 5.58794e-09H15C15.5523 5.58794e-09 16 0.447715 16 1V7C16 7.55228 15.5523 8 15 8C14.4477 8 14 7.55228 14 7V2H9C8.44772 2 8 1.55228 8 1Z" fill="var(--fill-0, #FAF9FA)"/>
<path fill-rule="evenodd" clip-rule="evenodd" d="M15.7071 0.292893C16.0976 0.683417 16.0976 1.31658 15.7071 1.70711L1.70711 15.7071C1.31658 16.0976 0.683417 16.0976 0.292893 15.7071C-0.0976311 15.3166 -0.0976311 14.6834 0.292893 14.2929L14.2929 0.292893C14.6834 -0.0976311 15.3166 -0.0976311 15.7071 0.292893Z" fill="var(--fill-0, #FAF9FA)"/>
</g>
</svg>
