<svg preserveAspectRatio="none" width="100%" height="100%" overflow="visible" style="display: block;" viewBox="0 0 33.1674 40" fill="none" xmlns="http://www.w3.org/2000/svg">
<g id="Frame 2">
<path id="Vector" d="M16.8491 0C17.0077 0.023785 18.9148 2.05167 19.2045 2.314C16.4306 4.92783 13.6933 7.73211 10.9871 10.4233L8.46205 12.9082C7.55571 13.8003 6.70471 14.6286 5.94249 15.6523C3.88801 18.402 3.02409 21.8617 3.54481 25.2545C4.03896 28.7357 5.91335 31.8716 8.74548 33.9555C9.59845 34.5865 10.9797 35.3806 11.9879 35.7337C17.469 37.6532 23.6623 35.8695 27.1505 31.1327C29.2331 28.2893 30.0876 24.7291 29.5224 21.2502C29.0638 18.2693 27.4234 15.5907 25.319 13.5022C24.6696 12.8575 24.0962 12.1788 23.3482 11.6289C23.8121 11.1276 25.4105 9.48069 25.9046 9.18147C26.7462 10.1219 27.7188 11.0477 28.5868 11.9868C28.6431 12.0399 28.6978 12.0947 28.7506 12.1512C31.8629 15.4609 33.2947 19.5365 33.1586 24.046C33.0262 28.4272 31.1477 32.5736 27.9413 35.562C24.7076 38.5713 20.4057 40.1642 15.9919 39.9866C12.4809 39.8805 9.09731 38.6466 6.34234 36.4675C1.51878 32.6787 -0.892624 26.3976 0.302846 20.4271C0.84851 17.702 1.84543 15.38 3.57263 13.1794C4.31624 12.232 5.24184 11.4142 6.09191 10.5752C7.42223 9.2428 8.76513 7.92305 10.1205 6.61612L14.6296 2.17642C15.3606 1.45506 16.0965 0.696299 16.8491 0Z" fill="var(--fill-0, #F68322)"/>
<path id="Vector_2" d="M21.2652 4.57374C21.4855 4.66401 23.3727 6.65636 23.6553 6.95288C23.6061 6.98697 23.5584 7.02322 23.5124 7.06152C22.5454 7.86735 21.5047 8.99977 20.6041 9.90125L15.7533 14.7467L12.782 17.6899C12.2189 18.2517 11.4692 18.9494 11.0255 19.5789C10.3507 20.5368 9.93973 21.6554 9.83383 22.8224C9.63573 25.0441 10.5542 27.2069 12.2752 28.6124C17.2167 32.6478 24.5787 28.1904 23.1831 21.9323C22.7249 19.8777 21.3982 18.6593 20.0196 17.1832C19.6383 16.7753 19.2008 16.4577 18.8388 16.0297C19.4362 15.3582 20.8234 14.2131 21.2794 13.5575C21.6751 14.1559 23.3168 15.7092 23.9325 16.3757C25.446 17.8473 26.5772 20.5227 26.734 22.6013C26.9506 25.404 26.0283 28.0521 24.1942 30.1541C19.8063 35.1826 11.5294 34.5099 8.02423 28.835C7.1805 27.469 6.58761 25.7676 6.485 24.1617C6.3537 22.0777 6.85926 20.0031 7.93461 18.2132C8.80104 16.7841 10.4007 15.3817 11.6078 14.1764L17.4459 8.38911C18.5919 7.26806 20.2286 5.75423 21.2652 4.57374Z" fill="var(--fill-0, #F68322)"/>
<path id="Vector_3" d="M16.5875 18.3237C16.7159 18.3677 17.6184 19.3358 17.7859 19.4982C18.878 20.5568 20.1415 21.5142 20.2386 23.1526C20.3048 24.2699 20.0007 25.0515 19.2786 25.9066C18.6854 26.6367 17.5457 27.0855 16.6242 27.1462C12.9228 27.0988 11.6183 22.6963 14.3211 20.4485C15.1014 19.7995 15.7624 18.9715 16.5875 18.3237Z" fill="var(--fill-0, #F68322)"/>
</g>
</svg>
