<svg width="184" height="89" viewBox="0 0 184 89" fill="none" xmlns="http://www.w3.org/2000/svg">
<path d="M37.4468 0C37.7994 0.0528617 42.0378 4.55979 42.6816 5.14282C36.5167 10.952 30.4331 17.1845 24.4186 23.1657L18.8068 28.6883C16.7924 30.6709 14.9011 32.5118 13.2071 34.7869C8.64103 40.8981 6.72098 48.5872 7.87829 56.1276C8.97653 63.8646 13.1423 70.8342 19.4367 75.4654C21.3324 76.8679 24.4021 78.6328 26.6429 79.4176C38.8245 83.6836 52.589 79.7193 60.3414 69.1919C64.9701 62.8726 66.8692 54.96 65.613 47.2283C64.5938 40.6032 60.948 34.65 56.2711 30.0083C54.8277 28.5756 53.5534 27.0671 51.891 25.845C52.9219 24.7309 56.4743 21.0707 57.5726 20.4057C59.443 22.4958 61.6045 24.5534 63.5337 26.6405C63.6589 26.7584 63.7803 26.8803 63.8977 27.0059C70.8147 34.3616 73.997 43.4194 73.6943 53.4419C73.4003 63.1789 69.2253 72.3942 62.099 79.0359C54.9122 85.7242 45.3512 89.2643 35.5417 88.8695C27.7385 88.6337 20.2186 85.8915 14.0958 81.0483C3.37547 72.6279 -1.98384 58.6682 0.673071 45.3989C1.8858 39.3424 4.10144 34.1818 7.9401 29.291C9.59277 27.1854 11.6499 25.3679 13.5392 23.5031C16.4958 20.542 19.4804 17.6088 22.4925 14.7042L32.5141 4.83705C34.1386 3.23384 35.7742 1.54751 37.4468 0Z" fill="#F68322"/>
<path d="M47.2615 10.1651C47.7511 10.3657 51.9454 14.7936 52.5735 15.4527C52.4641 15.5284 52.3582 15.609 52.2558 15.6941C50.1067 17.485 47.7937 20.0018 45.7922 22.0054L35.0115 32.7744L28.4078 39.3155C27.1562 40.564 25.4902 42.1147 24.504 43.5137C23.0042 45.6427 22.0909 48.1287 21.8555 50.7223C21.4152 55.6601 23.4565 60.4668 27.2814 63.5905C38.2637 72.5591 54.6257 62.6527 51.5241 48.7441C50.5058 44.1779 47.557 41.4699 44.4932 38.1894C43.6458 37.2828 42.6734 36.5769 41.8689 35.6257C43.1965 34.1334 46.2797 31.5884 47.2932 30.1314C48.1726 31.4612 51.8213 34.9135 53.1896 36.3947C56.5533 39.6654 59.0675 45.6114 59.4158 50.231C59.8972 56.46 57.8476 62.3452 53.7711 67.0169C44.0191 78.1928 25.6238 76.6976 17.8337 64.0852C15.9585 61.0493 14.6408 57.268 14.4128 53.699C14.121 49.0674 15.2446 44.4566 17.6345 40.4785C19.5602 37.3025 23.1153 34.1856 25.7981 31.5069L38.7733 18.6446C41.3201 16.1531 44.9577 12.7887 47.2615 10.1651Z" fill="#F68322"/>
<path d="M36.8655 40.724C37.1508 40.8218 39.1567 42.9734 39.5289 43.3343C41.956 45.6871 44.7642 47.815 44.98 51.4563C45.127 53.9395 44.4512 55.6765 42.8463 57.577C41.5281 59.1997 38.995 60.1972 36.9469 60.332C28.7207 60.2266 25.8216 50.4421 31.8284 45.4464C33.5626 44.0041 35.0317 42.1639 36.8655 40.724Z" fill="#F68322"/>
<path d="M92.0035 13.2584C92.0035 12.3663 91.7669 11.7302 91.2937 11.3501C90.8283 10.97 90.1728 10.7799 89.3273 10.7799H85.9878V15.8299H89.3273C90.1728 15.8299 90.8283 15.6243 91.2937 15.2132C91.7669 14.8021 92.0035 14.1504 92.0035 13.2584ZM95.5525 13.2351C95.5525 15.2597 95.0405 16.6909 94.0165 17.5287C92.9926 18.3665 91.5303 18.7854 89.6298 18.7854H85.9878V24.9524H82.4272V7.80113H89.8974C91.6195 7.80113 92.9926 8.2433 94.0165 9.12762C95.0405 10.012 95.5525 11.3811 95.5525 13.2351Z" fill="#404041"/>
<path d="M102.233 22.6136C103.203 22.6136 103.947 22.2684 104.467 21.578C104.987 20.8876 105.247 19.9063 105.247 18.6341C105.247 17.362 104.987 16.3845 104.467 15.7019C103.947 15.0115 103.203 14.6663 102.233 14.6663C101.263 14.6663 100.515 15.0115 99.9871 15.7019C99.4674 16.3845 99.2075 17.362 99.2075 18.6341C99.2075 19.9063 99.4674 20.8876 99.9871 21.578C100.515 22.2684 101.263 22.6136 102.233 22.6136ZM108.726 18.6341C108.726 20.4959 108.19 22.09 107.12 23.4165C106.049 24.7352 104.424 25.3946 102.244 25.3946C100.065 25.3946 98.4396 24.7352 97.3691 23.4165C96.2985 22.09 95.7633 20.4959 95.7633 18.6341C95.7633 16.8034 96.2985 15.2171 97.3691 13.8751C98.4396 12.5331 100.065 11.8621 102.244 11.8621C104.424 11.8621 106.049 12.5331 107.12 13.8751C108.19 15.2171 108.726 16.8034 108.726 18.6341Z" fill="#404041"/>
<path d="M115.662 12.2693H119.025L120.956 21.4035L122.934 12.2693H126.39L122.713 24.9524H119.304L117.314 15.7135L115.301 24.9524H111.857L108.297 12.2693H111.857L113.835 21.3686L115.662 12.2693Z" fill="#404041"/>
<path d="M131.802 14.6663C131.034 14.6663 130.437 14.9068 130.01 15.3877C129.592 15.8687 129.328 16.5203 129.219 17.3426H134.374C134.32 16.466 134.052 15.8027 133.571 15.3528C133.098 14.8951 132.508 14.6663 131.802 14.6663ZM131.802 11.9319C132.857 11.9319 133.808 12.1297 134.653 12.5253C135.499 12.9209 136.197 13.5454 136.748 14.3987C137.244 15.1511 137.566 16.0238 137.713 17.0168C137.799 17.5985 137.834 18.4363 137.818 19.5301H129.138C129.184 20.8023 129.584 21.6944 130.336 22.2064C130.794 22.5244 131.345 22.6834 131.989 22.6834C132.671 22.6834 133.226 22.4895 133.653 22.1016C133.885 21.8922 134.091 21.6013 134.269 21.2289H137.655C137.57 21.9814 137.178 22.7455 136.48 23.5212C135.394 24.7546 133.874 25.3713 131.919 25.3713C130.305 25.3713 128.882 24.8516 127.648 23.8121C126.415 22.7726 125.798 21.0816 125.798 18.7389C125.798 16.5436 126.353 14.8602 127.462 13.6889C128.579 12.5175 130.026 11.9319 131.802 11.9319Z" fill="#404041"/>
<path d="M145.523 11.9668C145.585 11.9668 145.635 11.9707 145.674 11.9784C145.72 11.9784 145.817 11.9823 145.965 11.9901V15.3877C145.755 15.3645 145.569 15.3489 145.406 15.3412C145.243 15.3334 145.111 15.3295 145.011 15.3295C143.676 15.3295 142.78 15.764 142.323 16.6328C142.067 17.1215 141.939 17.8739 141.939 18.8901V24.9524H138.599V12.2693H141.764V14.4801C142.276 13.6346 142.722 13.0567 143.102 12.7464C143.723 12.2266 144.53 11.9668 145.523 11.9668Z" fill="#404041"/>
<path d="M92.0035 32.7714C92.0035 31.8793 91.7669 31.2432 91.2937 30.8631C90.8283 30.483 90.1728 30.2929 89.3273 30.2929H85.9878V35.3429H89.3273C90.1728 35.3429 90.8283 35.1374 91.2937 34.7262C91.7669 34.3151 92.0035 33.6635 92.0035 32.7714ZM95.5525 32.7481C95.5525 34.7728 95.0405 36.204 94.0165 37.0418C92.9926 37.8795 91.5303 38.2984 89.6298 38.2984H85.9878V44.4655H82.4272V27.3142H89.8974C91.6196 27.3142 92.9926 27.7563 94.0165 28.6407C95.0405 29.525 95.5525 30.8941 95.5525 32.7481Z" fill="#404041"/>
<path d="M103.431 31.4798C103.493 31.4798 103.544 31.4837 103.583 31.4914C103.629 31.4914 103.726 31.4953 103.874 31.5031V34.9008C103.664 34.8775 103.478 34.862 103.315 34.8542C103.152 34.8465 103.02 34.8426 102.919 34.8426C101.585 34.8426 100.689 35.277 100.232 36.1458C99.9755 36.6345 99.8475 37.387 99.8475 38.4032V44.4655H96.508V31.7823H99.673V33.9932C100.185 33.1476 100.631 32.5697 101.011 32.2594C101.632 31.7397 102.438 31.4798 103.431 31.4798Z" fill="#404041"/>
<path d="M107.808 30.2697H104.445V27.2094H107.808V30.2697ZM104.445 31.7823H107.808V44.4655H104.445V31.7823Z" fill="#404041"/>
<path d="M116.629 31.4798C117.94 31.4798 119.011 31.825 119.841 32.5154C120.679 33.198 121.097 34.3345 121.097 35.9247V44.4655H117.7V36.7509C117.7 36.0837 117.611 35.5718 117.432 35.2149C117.106 34.5633 116.486 34.2375 115.57 34.2375C114.446 34.2375 113.674 34.7146 113.255 35.6687C113.038 36.173 112.929 36.8168 112.929 37.6003V44.4655H109.624V31.8056H112.824V33.6557C113.251 33.0041 113.654 32.5348 114.034 32.2478C114.717 31.7358 115.582 31.4798 116.629 31.4798Z" fill="#404041"/>
<path d="M121.436 34.2608V31.8987H123.205V28.3614H126.486V31.8987H128.546V34.2608H126.486V40.9631C126.486 41.4828 126.552 41.8086 126.684 41.9405C126.816 42.0646 127.219 42.1266 127.894 42.1266C127.995 42.1266 128.1 42.1266 128.208 42.1266C128.325 42.1189 128.437 42.1111 128.546 42.1034V44.5818L126.975 44.64C125.408 44.6943 124.337 44.4228 123.763 43.8255C123.391 43.4454 123.205 42.8597 123.205 42.0685V34.2608H121.436Z" fill="#404041"/>
<path d="M94.4867 51.5699C94.2152 50.3986 93.5519 49.5802 92.497 49.1148C91.9074 48.8588 91.2519 48.7308 90.5305 48.7308C89.1497 48.7308 88.0133 49.2544 87.1212 50.3016C86.2368 51.3411 85.7947 52.908 85.7947 55.0025C85.7947 57.1125 86.2756 58.6058 87.2375 59.4823C88.1994 60.3589 89.2932 60.7972 90.5189 60.7972C91.7212 60.7972 92.7064 60.452 93.4744 59.7616C94.2423 59.0634 94.7155 58.152 94.8939 57.0272H90.9261V54.1647H98.0705V63.3687H95.6968L95.3361 61.2277C94.6457 62.0422 94.0251 62.6163 93.4744 62.9498C92.528 63.5316 91.3644 63.8225 89.9836 63.8225C87.7107 63.8225 85.849 63.0351 84.3984 61.4604C82.8857 59.8779 82.1294 57.7137 82.1294 54.9676C82.1294 52.1905 82.8935 49.9642 84.4217 48.2886C85.9498 46.613 87.9706 45.7753 90.4839 45.7753C92.6637 45.7753 94.413 46.3299 95.7317 47.4392C97.0582 48.5407 97.8184 49.9176 98.0124 51.5699H94.4867Z" fill="#A2A2A4"/>
<path d="M106.694 50.3831C106.756 50.3831 106.807 50.3869 106.845 50.3947C106.892 50.3947 106.989 50.3986 107.136 50.4063V53.804C106.927 53.7807 106.741 53.7652 106.578 53.7575C106.415 53.7497 106.283 53.7458 106.182 53.7458C104.848 53.7458 103.952 54.1802 103.494 55.0491C103.238 55.5378 103.11 56.2902 103.11 57.3064V63.3687H99.7708V50.6856H102.936V52.8964C103.448 52.0509 103.894 51.473 104.274 51.1627C104.894 50.6429 105.701 50.3831 106.694 50.3831Z" fill="#A2A2A4"/>
<path d="M114.654 57.2017C114.445 57.3336 114.232 57.4422 114.014 57.5275C113.805 57.6051 113.514 57.6788 113.142 57.7486L112.397 57.8882C111.699 58.0123 111.199 58.1636 110.896 58.342C110.384 58.6445 110.128 59.1139 110.128 59.7499C110.128 60.3162 110.283 60.7274 110.594 60.9834C110.912 61.2316 111.296 61.3557 111.745 61.3557C112.459 61.3557 113.115 61.1463 113.712 60.7274C114.317 60.3085 114.631 59.5444 114.654 58.4351V57.2017ZM112.641 55.6541C113.254 55.5765 113.693 55.4796 113.956 55.3632C114.43 55.1615 114.666 54.8474 114.666 54.4207C114.666 53.901 114.484 53.5441 114.119 53.3502C113.762 53.1485 113.235 53.0477 112.537 53.0477C111.753 53.0477 111.199 53.2416 110.873 53.6295C110.64 53.9165 110.485 54.3044 110.407 54.7931H107.208C107.277 53.6838 107.588 52.7723 108.138 52.0586C109.015 50.9416 110.52 50.3831 112.653 50.3831C114.042 50.3831 115.275 50.6584 116.353 51.2092C117.432 51.76 117.971 52.7994 117.971 54.3276V60.1456C117.971 60.5489 117.978 61.0377 117.994 61.6117C118.017 62.0461 118.083 62.3409 118.192 62.496C118.3 62.6512 118.463 62.7792 118.68 62.88V63.3687H115.073C114.973 63.1127 114.903 62.8722 114.864 62.6473C114.825 62.4223 114.794 62.1663 114.771 61.8793C114.313 62.3758 113.786 62.7986 113.188 63.1476C112.475 63.5588 111.668 63.7643 110.768 63.7643C109.62 63.7643 108.67 63.4385 107.917 62.7869C107.173 62.1275 106.8 61.1967 106.8 59.9943C106.8 58.4351 107.401 57.3064 108.604 56.6083C109.263 56.2282 110.233 55.9567 111.513 55.7937L112.641 55.6541Z" fill="#A2A2A4"/>
<path d="M128.235 57.0272C128.235 56.0497 128.01 55.1848 127.56 54.4323C127.118 53.6799 126.396 53.3037 125.396 53.3037C124.193 53.3037 123.367 53.8738 122.917 55.0141C122.685 55.6192 122.568 56.3872 122.568 57.318C122.568 58.7919 122.96 59.8275 123.743 60.4248C124.209 60.7739 124.76 60.9484 125.396 60.9484C126.319 60.9484 127.021 60.5916 127.502 59.8779C127.991 59.1643 128.235 58.214 128.235 57.0272ZM126.35 50.4063C127.832 50.4063 129.084 50.9532 130.108 52.047C131.14 53.1408 131.656 54.7465 131.656 56.8642C131.656 59.0983 131.152 60.8011 130.143 61.9724C129.143 63.1437 127.851 63.7294 126.268 63.7294C125.26 63.7294 124.422 63.4773 123.755 62.9731C123.391 62.6938 123.034 62.2866 122.685 61.7513V68.3605H119.403V50.6856H122.58V52.559C122.937 52.0082 123.317 51.5738 123.72 51.2558C124.457 50.6895 125.334 50.4063 126.35 50.4063Z" fill="#A2A2A4"/>
<path d="M139.628 50.3598C140.411 50.3598 141.121 50.4955 141.757 50.767C142.401 51.0385 142.929 51.4536 143.34 52.0121C143.689 52.4853 143.902 52.974 143.98 53.4782C144.057 53.9747 144.096 54.7892 144.096 55.9217V63.3687H140.71V55.6541C140.71 54.9715 140.594 54.4207 140.361 54.0018C140.058 53.4123 139.484 53.1175 138.639 53.1175C137.762 53.1175 137.095 53.4123 136.637 54.0018C136.188 54.5836 135.963 55.4175 135.963 56.5035V63.3687H132.658V46.2756H135.963V52.3379C136.444 51.601 136.998 51.089 137.626 50.802C138.263 50.5072 138.93 50.3598 139.628 50.3598Z" fill="#A2A2A4"/>
<path d="M149.182 49.1729H145.82V46.1127H149.182V49.1729ZM145.82 50.6856H149.182V63.3687H145.82V50.6856Z" fill="#A2A2A4"/>
<path d="M158.551 55.2352C158.489 54.762 158.33 54.3354 158.074 53.9553C157.701 53.4433 157.123 53.1873 156.34 53.1873C155.223 53.1873 154.459 53.742 154.048 54.8512C153.83 55.4408 153.722 56.2243 153.722 57.2017C153.722 58.1326 153.83 58.8811 154.048 59.4474C154.443 60.5024 155.188 61.0299 156.282 61.0299C157.057 61.0299 157.608 60.8204 157.934 60.4016C158.26 59.9827 158.458 59.4397 158.527 58.7725H161.913C161.836 59.781 161.471 60.7351 160.82 61.635C159.78 63.0856 158.24 63.8109 156.2 63.8109C154.16 63.8109 152.659 63.2058 151.697 61.9957C150.735 60.7855 150.254 59.2147 150.254 57.2831C150.254 55.1034 150.786 53.4084 151.848 52.1983C152.911 50.9881 154.377 50.3831 156.247 50.3831C157.837 50.3831 159.136 50.7399 160.145 51.4536C161.161 52.1672 161.762 53.4278 161.948 55.2352H158.551Z" fill="#A2A2A4"/>
<path d="M84.9406 77.5874C85.0492 78.3709 85.2625 78.9566 85.5805 79.3444C86.1623 80.0503 87.1591 80.4033 88.5709 80.4033C89.4165 80.4033 90.103 80.3102 90.6305 80.124C91.6312 79.7672 92.1315 79.104 92.1315 78.1343C92.1315 77.568 91.8833 77.1297 91.3868 76.8194C90.8904 76.5169 90.1108 76.2493 89.048 76.0166L87.2328 75.6093C85.4487 75.2059 84.2152 74.7677 83.5326 74.2945C82.3768 73.5032 81.7989 72.2659 81.7989 70.5826C81.7989 69.0467 82.3574 67.7706 83.4744 66.7544C84.5915 65.7382 86.2321 65.2301 88.3964 65.2301C90.2039 65.2301 91.7437 65.7111 93.0159 66.673C94.2958 67.6271 94.9668 69.0156 95.0289 70.8386H91.5846C91.5226 69.8069 91.0727 69.0738 90.2349 68.6394C89.6764 68.3524 88.9821 68.2089 88.1521 68.2089C87.2289 68.2089 86.492 68.3951 85.9412 68.7674C85.3905 69.1398 85.1151 69.6595 85.1151 70.3266C85.1151 70.9394 85.3866 71.3971 85.9296 71.6997C86.2787 71.9013 87.0234 72.1379 88.1637 72.4094L91.1192 73.1192C92.4147 73.4295 93.3921 73.8445 94.0514 74.3643C95.0754 75.171 95.5874 76.3385 95.5874 77.8667C95.5874 79.4336 94.9862 80.7369 93.7838 81.7763C92.5892 82.808 90.8981 83.3239 88.7106 83.3239C86.4765 83.3239 84.7195 82.8158 83.4395 81.7996C82.1596 80.7756 81.5196 79.3716 81.5196 77.5874H84.9406Z" fill="#A2A2A4"/>
<path d="M102.233 80.5429C103.203 80.5429 103.947 80.1977 104.467 79.5073C104.987 78.8169 105.247 77.8356 105.247 76.5635C105.247 75.2913 104.987 74.3139 104.467 73.6312C103.947 72.9408 103.203 72.5956 102.233 72.5956C101.263 72.5956 100.515 72.9408 99.9871 73.6312C99.4674 74.3139 99.2075 75.2913 99.2075 76.5635C99.2075 77.8356 99.4674 78.8169 99.9871 79.5073C100.515 80.1977 101.263 80.5429 102.233 80.5429ZM108.726 76.5635C108.726 78.4252 108.19 80.0193 107.12 81.3458C106.049 82.6645 104.424 83.3239 102.245 83.3239C100.065 83.3239 98.4396 82.6645 97.3691 81.3458C96.2986 80.0193 95.7633 78.4252 95.7633 76.5635C95.7633 74.7327 96.2986 73.1464 97.3691 71.8044C98.4396 70.4624 100.065 69.7914 102.245 69.7914C104.424 69.7914 106.049 70.4624 107.12 71.8044C108.19 73.1464 108.726 74.7327 108.726 76.5635Z" fill="#A2A2A4"/>
<path d="M113.067 82.8817H109.751V65.7304H113.067V82.8817Z" fill="#A2A2A4"/>
<path d="M118.188 70.1986V77.8434C118.188 78.5648 118.274 79.1078 118.444 79.4724C118.747 80.1163 119.34 80.4382 120.225 80.4382C121.357 80.4382 122.133 79.9805 122.552 79.0652C122.769 78.5687 122.878 77.9132 122.878 77.0987V70.1986H126.24V82.8817H123.017V81.0898C122.986 81.1286 122.909 81.245 122.785 81.4389C122.661 81.6328 122.513 81.8035 122.342 81.9509C121.823 82.4163 121.319 82.7344 120.83 82.905C120.349 83.0757 119.783 83.161 119.131 83.161C117.254 83.161 115.989 82.4861 115.338 81.1364C114.973 80.3917 114.791 79.294 114.791 77.8434V70.1986H118.188Z" fill="#A2A2A4"/>
<path d="M126.719 72.6771V70.315H128.488V66.7777H131.769V70.315H133.828V72.6771H131.769V79.3793C131.769 79.8991 131.835 80.2249 131.967 80.3568C132.099 80.4809 132.502 80.5429 133.177 80.5429C133.278 80.5429 133.382 80.5429 133.491 80.5429C133.607 80.5352 133.72 80.5274 133.828 80.5197V82.9981L132.258 83.0563C130.691 83.1106 129.62 82.8391 129.046 82.2418C128.674 81.8617 128.488 81.276 128.488 80.4847V72.6771H126.719Z" fill="#A2A2A4"/>
<path d="M137.937 68.686H134.575V65.6257H137.937V68.686ZM134.575 70.1986H137.937V82.8817H134.575V70.1986Z" fill="#A2A2A4"/>
<path d="M145.421 80.5429C146.39 80.5429 147.135 80.1977 147.655 79.5073C148.174 78.8169 148.434 77.8356 148.434 76.5635C148.434 75.2913 148.174 74.3139 147.655 73.6312C147.135 72.9408 146.39 72.5956 145.421 72.5956C144.451 72.5956 143.702 72.9408 143.175 73.6312C142.655 74.3139 142.395 75.2913 142.395 76.5635C142.395 77.8356 142.655 78.8169 143.175 79.5073C143.702 80.1977 144.451 80.5429 145.421 80.5429ZM151.913 76.5635C151.913 78.4252 151.378 80.0193 150.308 81.3458C149.237 82.6645 147.612 83.3239 145.432 83.3239C143.252 83.3239 141.627 82.6645 140.557 81.3458C139.486 80.0193 138.951 78.4252 138.951 76.5635C138.951 74.7327 139.486 73.1464 140.557 71.8044C141.627 70.4624 143.252 69.7914 145.432 69.7914C147.612 69.7914 149.237 70.4624 150.308 71.8044C151.378 73.1464 151.913 74.7327 151.913 76.5635Z" fill="#A2A2A4"/>
<path d="M159.897 69.8961C161.208 69.8961 162.279 70.2413 163.109 70.9317C163.946 71.6143 164.365 72.7508 164.365 74.341V82.8817H160.968V75.1671C160.968 74.5 160.878 73.988 160.7 73.6312C160.374 72.9796 159.754 72.6538 158.838 72.6538C157.713 72.6538 156.942 73.1309 156.523 74.085C156.305 74.5892 156.197 75.2331 156.197 76.0166V82.8817H152.892V70.2219H156.092V72.072C156.519 71.4204 156.922 70.9511 157.302 70.6641C157.985 70.1521 158.85 69.8961 159.897 69.8961Z" fill="#A2A2A4"/>
<path d="M168.59 78.8325C168.66 79.422 168.812 79.8409 169.044 80.0891C169.455 80.5313 170.216 80.7524 171.325 80.7524C171.977 80.7524 172.492 80.6554 172.872 80.4615C173.26 80.2675 173.454 79.9766 173.454 79.5888C173.454 79.2164 173.299 78.9333 172.989 78.7394C172.679 78.5454 171.527 78.2119 169.533 77.7387C168.098 77.3818 167.086 76.9358 166.496 76.4006C165.906 75.8731 165.612 75.1128 165.612 74.1199C165.612 72.9486 166.069 71.944 166.985 71.1062C167.908 70.2607 169.203 69.8379 170.871 69.8379C172.454 69.8379 173.741 70.156 174.734 70.7921C175.735 71.4204 176.309 72.5103 176.456 74.0617H173.14C173.094 73.6351 172.973 73.2977 172.779 73.0494C172.415 72.5995 171.794 72.3745 170.918 72.3745C170.196 72.3745 169.68 72.487 169.37 72.712C169.068 72.9369 168.916 73.2007 168.916 73.5032C168.916 73.8833 169.079 74.1587 169.405 74.3294C169.731 74.5078 170.883 74.8142 172.861 75.2486C174.18 75.5589 175.169 76.0282 175.828 76.6565C176.48 77.2926 176.805 78.0878 176.805 79.0419C176.805 80.2986 176.336 81.3264 175.397 82.1254C174.467 82.9166 173.024 83.3123 171.069 83.3123C169.075 83.3123 167.601 82.8934 166.647 82.0556C165.701 81.2101 165.228 80.1357 165.228 78.8325H168.59Z" fill="#A2A2A4"/>
<path d="M129.156 40.4025C129.156 39.5542 129.366 38.8271 129.787 38.2211C130.208 37.6152 130.897 37.0157 131.854 36.4225L132.15 36.2407C131.742 35.7815 131.426 35.3127 131.203 34.8343C130.98 34.356 130.868 33.8585 130.868 33.3418C130.868 32.3149 131.213 31.5145 131.901 30.9404C132.59 30.36 133.483 30.0698 134.58 30.0698C135.582 30.0698 136.408 30.3664 137.058 30.9596C137.715 31.5464 138.044 32.299 138.044 33.2175C138.044 34.0466 137.846 34.7195 137.45 35.2361C137.061 35.7528 136.487 36.2311 135.728 36.6712L137.728 39.1396C137.957 38.8079 138.133 38.4476 138.254 38.0585C138.382 37.6694 138.449 37.258 138.455 36.8243H140.875C140.837 37.679 140.633 38.5432 140.263 39.4171C140.059 39.9082 139.727 40.4503 139.268 41.0435L141.832 44.1242H138.522L137.546 42.9282C137.074 43.3683 136.634 43.6936 136.226 43.9041C135.499 44.2804 134.66 44.4686 133.71 44.4686C132.281 44.4686 131.165 44.0476 130.361 43.2057C129.557 42.3638 129.156 41.4294 129.156 40.4025ZM133.375 33.2462C133.375 33.5013 133.464 33.7692 133.643 34.0498C133.757 34.2348 134.006 34.5632 134.389 35.0352C134.772 34.7674 135.046 34.5409 135.212 34.356C135.531 34.0115 135.69 33.6384 135.69 33.2366C135.69 32.9432 135.594 32.6817 135.403 32.4521C135.212 32.2225 134.921 32.1076 134.532 32.1076C134.29 32.1076 134.064 32.1746 133.853 32.3086C133.534 32.5063 133.375 32.8188 133.375 33.2462ZM131.873 40.3164C131.873 40.782 132.061 41.2093 132.437 41.5984C132.82 41.9875 133.308 42.182 133.901 42.182C134.347 42.182 134.768 42.0799 135.164 41.8758C135.566 41.6654 135.891 41.4326 136.14 41.1774L133.556 37.982C132.874 38.4348 132.421 38.8334 132.198 39.1779C131.981 39.5223 131.873 39.9018 131.873 40.3164Z" fill="#F68322"/>
<path d="M180.6 78.7185C179.954 78.7185 179.402 78.9487 178.944 79.409C178.489 79.8669 178.261 80.42 178.261 81.0684C178.261 81.7218 178.487 82.2786 178.94 82.7389C179.396 83.1993 179.949 83.4294 180.6 83.4294C181.251 83.4294 181.804 83.1993 182.259 82.7389C182.714 82.2786 182.942 81.7218 182.942 81.0684C182.942 80.42 182.714 79.8669 182.259 79.409C181.801 78.9487 181.248 78.7185 180.6 78.7185ZM183.328 81.0684C183.328 81.8232 183.062 82.4679 182.53 83.0025C181.998 83.5371 181.355 83.8044 180.6 83.8044C179.845 83.8044 179.203 83.5371 178.673 83.0025C178.146 82.4704 177.882 81.8257 177.882 81.0684C177.882 80.3185 178.148 79.6775 178.68 79.1454C179.21 78.6158 179.85 78.351 180.6 78.351C181.355 78.351 181.998 78.6158 182.53 79.1454C183.062 79.6751 183.328 80.3161 183.328 81.0684ZM181.312 80.4744C181.312 80.2567 181.246 80.1106 181.112 80.0364C180.981 79.9622 180.769 79.925 180.477 79.925H180.028V81.009H180.503C180.726 81.009 180.893 80.9867 181.004 80.9422C181.21 80.8605 181.312 80.7046 181.312 80.4744ZM180.548 79.5649C180.919 79.5649 181.191 79.6008 181.364 79.6726C181.674 79.8013 181.828 80.0537 181.828 80.4299C181.828 80.6972 181.731 80.8939 181.535 81.0201C181.431 81.087 181.286 81.1352 181.101 81.1649C181.336 81.2021 181.508 81.2998 181.617 81.4582C181.726 81.6166 181.78 81.7713 181.78 81.9222V82.1413C181.78 82.2106 181.783 82.2848 181.788 82.364C181.793 82.4432 181.801 82.4952 181.814 82.5199L181.832 82.557H181.338C181.336 82.5471 181.333 82.5372 181.331 82.5273C181.329 82.5174 181.326 82.5063 181.324 82.4939L181.312 82.3974V82.1598C181.312 81.8133 181.218 81.5844 181.03 81.473C180.919 81.4087 180.723 81.3765 180.444 81.3765H180.028V82.557H179.501V79.5649H180.548Z" fill="#A2A2A4"/>
</svg>
